<svg xmlns="http://www.w3.org/2000/svg" viewBox="7385 30 184.43 82.923">
 <defs>
  <style>
   .logo-red {
   fill: #e50020;
   }

   .logo-gray {
   fill: #aaa;
   }

   .logo-text {
   fill: #261909;
   }
 </style>
</defs>
<g transform="translate(7385 21)">
  <g>
    <g transform="translate(62.489 9)">
      <rect id="Rectangle_33" data-name="Rectangle 33" class="logo-red" width="13.977" height="13.977" transform="translate(19.762 29.646) rotate(-45)"/>
      <path class="logo-gray" d="M182.5,29.644,162.737,49.411l-9.224-9.224,10.537-10.543L143.63,9.224,152.854,0Z" transform="translate(-123.209)"/>
      <path class="logo-gray" d="M147.828,56.968,138.6,66.191,108.96,36.541,128.721,16.78,137.945,26,127.4,36.541Z" transform="translate(-108.96 -6.897)"/>
    </g>
    <g transform="translate(0 76.808)">
     <path class="logo-text" d="M10.448,129.48h-1.2v-6.738H1.167V129.5H0V115.38H1.167v6.335H9.246V115.38h1.2Z" transform="translate(0 -114.592)"/>
     <path class="logo-text" d="M26.051,126.532a6.154,6.154,0,0,1,.583-2.718,4.4,4.4,0,0,1,4.083-2.555,4.329,4.329,0,0,1,3.389,1.464,5.67,5.67,0,0,1,1.3,3.891v.239a6.213,6.213,0,0,1-.583,2.736,4.387,4.387,0,0,1-1.651,1.873,4.5,4.5,0,0,1-2.433.659,4.305,4.305,0,0,1-3.383-1.464,5.647,5.647,0,0,1-1.307-3.891Zm1.167.321a4.731,4.731,0,0,0,.974,3.086,3.29,3.29,0,0,0,5.093,0,4.923,4.923,0,0,0,.974-3.179v-.228a5.3,5.3,0,0,0-.449-2.193,3.559,3.559,0,0,0-1.248-1.546,3.173,3.173,0,0,0-1.838-.548,3.121,3.121,0,0,0-2.532,1.2,4.953,4.953,0,0,0-.974,3.185Z" transform="translate(-10.849 -117.04)"/>
     <path class="logo-text" d="M50.652,117v2.683h2.17v.951h-2.17v7a2.194,2.194,0,0,0,.315,1.3,1.231,1.231,0,0,0,1.05.426,7.406,7.406,0,0,0,.939-.1l.053.939a3.769,3.769,0,0,1-1.243.163,2.065,2.065,0,0,1-1.75-.688,3.267,3.267,0,0,1-.543-2.042v-7H47.56v-.951h1.931V117Z" transform="translate(-19.816 -115.267)"/>
     <path class="logo-text" d="M67.886,132.119a4.5,4.5,0,0,1-4.083-2.491,5.694,5.694,0,0,1-.583-2.637v-.42a6.137,6.137,0,0,1,.583-2.718,4.667,4.667,0,0,1,1.622-1.908,4.037,4.037,0,0,1,2.269-.688,3.786,3.786,0,0,1,3.028,1.3,5.309,5.309,0,0,1,1.114,3.558v.648h-7.49v.228a4.369,4.369,0,0,0,1.021,2.963,3.243,3.243,0,0,0,2.573,1.167,3.827,3.827,0,0,0,1.639-.338,3.728,3.728,0,0,0,1.3-1.085l.723.548a4.218,4.218,0,0,1-3.71,1.873Zm-.21-9.847a2.917,2.917,0,0,0-2.205.957,4.451,4.451,0,0,0-1.091,2.543h6.294v-.128a3.85,3.85,0,0,0-.863-2.456,2.666,2.666,0,0,0-2.135-.916Z" transform="translate(-26.34 -117.039)"/>
     <path class="logo-text" d="M114.657,131.958a5.32,5.32,0,0,1-.222-1.458,4.142,4.142,0,0,1-1.558,1.225,4.777,4.777,0,0,1-2,.426,3.5,3.5,0,0,1-2.444-.84,2.736,2.736,0,0,1-.933-2.129,2.812,2.812,0,0,1,1.272-2.421,6.131,6.131,0,0,1,3.553-.893h2.1V124.7a2.287,2.287,0,0,0-.694-1.75,2.847,2.847,0,0,0-2.018-.648,3.168,3.168,0,0,0-2.007.624,1.843,1.843,0,0,0-.793,1.488h-1.167a2.683,2.683,0,0,1,1.167-2.164,4.463,4.463,0,0,1,2.858-.916,4.084,4.084,0,0,1,2.765.875,3.127,3.127,0,0,1,1.038,2.444v4.958a6.2,6.2,0,0,0,.321,2.275V132Zm-3.64-.834a3.914,3.914,0,0,0,2.077-.583,3.337,3.337,0,0,0,1.33-1.5v-2.333h-2.071a5.192,5.192,0,0,0-2.713.63,1.908,1.908,0,0,0-.98,1.692,1.873,1.873,0,0,0,.653,1.464A2.479,2.479,0,0,0,111.017,131.124Z" transform="translate(-44.789 -117.07)"/>
     <path class="logo-text" d="M131.225,121.452l.041,1.7a3.856,3.856,0,0,1,1.453-1.423,3.984,3.984,0,0,1,1.937-.473,2.939,2.939,0,0,1,3.144,2.03,3.966,3.966,0,0,1,1.505-1.505,4.154,4.154,0,0,1,2.071-.525q3.372,0,3.436,3.681v7h-1.167v-6.919a3.1,3.1,0,0,0-.583-2.077,2.456,2.456,0,0,0-1.919-.671,3.132,3.132,0,0,0-2.112.811,2.864,2.864,0,0,0-.957,1.925v6.93h-1.167v-7a2.859,2.859,0,0,0-.636-2.013,2.514,2.514,0,0,0-1.919-.665,2.917,2.917,0,0,0-1.878.624,3.681,3.681,0,0,0-1.167,1.855v7.187H130.14v-10.5Z" transform="translate(-54.223 -117.041)"/>
     <path class="logo-text" d="M181.479,123.594H177.4v5.88h-1.2v-14.1h4.55a5.25,5.25,0,0,1,3.5,1.091,4.165,4.165,0,0,1,.473,5.449,4.031,4.031,0,0,1-2.129,1.429l3.5,6.009v.122h-1.266Zm-4.083-1h3.652a3.378,3.378,0,0,0,2.415-.858,2.882,2.882,0,0,0,.91-2.211,2.917,2.917,0,0,0-.951-2.333,3.949,3.949,0,0,0-2.666-.823H177.4Z" transform="translate(-73.414 -114.586)"/>
     <path class="logo-text" d="M207.127,131.958a5.32,5.32,0,0,1-.222-1.458,4.143,4.143,0,0,1-1.557,1.225,4.754,4.754,0,0,1-2,.426,3.529,3.529,0,0,1-2.45-.84,2.753,2.753,0,0,1-.933-2.129,2.8,2.8,0,0,1,1.277-2.421,6.1,6.1,0,0,1,3.547-.893h2.1V124.7a2.287,2.287,0,0,0-.688-1.75,2.87,2.87,0,0,0-2.024-.647,3.15,3.15,0,0,0-2,.624,1.826,1.826,0,0,0-.793,1.488H200.22a2.689,2.689,0,0,1,1.167-2.164,4.445,4.445,0,0,1,2.853-.916,4.084,4.084,0,0,1,2.765.875,3.133,3.133,0,0,1,1.044,2.444v4.958a6.075,6.075,0,0,0,.321,2.275V132Zm-3.64-.834a3.9,3.9,0,0,0,2.077-.583,3.267,3.267,0,0,0,1.33-1.5v-2.333h-2.071a5.209,5.209,0,0,0-2.713.63,1.907,1.907,0,0,0-.98,1.692,1.878,1.878,0,0,0,.659,1.464,2.456,2.456,0,0,0,1.7.63Z" transform="translate(-83.317 -117.07)"/>
     <path class="logo-text" d="M223.553,117v2.683h2.17v.951h-2.17v7a2.193,2.193,0,0,0,.315,1.3,1.231,1.231,0,0,0,1.05.426,7.406,7.406,0,0,0,.939-.1l.052.939a3.739,3.739,0,0,1-1.243.163,2.065,2.065,0,0,1-1.75-.688,3.267,3.267,0,0,1-.543-2.042v-7H220.45v-.951h1.925V117Z" transform="translate(-91.85 -115.267)"/>
     <path class="logo-text" d="M225.694,113.333l0,12.368a2.193,2.193,0,0,0,.315,1.3,1.231,1.231,0,0,0,1.05.426,7.4,7.4,0,0,0,.939-.1l.052.939a3.739,3.739,0,0,1-1.243.163,2.065,2.065,0,0,1-1.75-.688,3.267,3.267,0,0,1-.542-2.042V113.333Z" transform="translate(-174.354 -113.333)"/>
     <path class="logo-text" d="M238.313,120.222a4.083,4.083,0,0,1,1.464-1.453,3.815,3.815,0,0,1,1.948-.513,3.156,3.156,0,0,1,2.508.945,4.294,4.294,0,0,1,.828,2.847v6.878H243.9v-6.884a3.2,3.2,0,0,0-.583-2.094,2.333,2.333,0,0,0-1.873-.688,2.946,2.946,0,0,0-1.908.677,3.985,3.985,0,0,0-1.225,1.814v7.175H237.14V114.05h1.167Z" transform="translate(-98.804 -114.037)"/>
     <path class="logo-text" d="M265.637,131.958a5.32,5.32,0,0,1-.222-1.458,4.142,4.142,0,0,1-1.557,1.225,4.778,4.778,0,0,1-2,.426,3.5,3.5,0,0,1-2.444-.84,2.736,2.736,0,0,1-.933-2.129,2.812,2.812,0,0,1,1.272-2.421,6.131,6.131,0,0,1,3.553-.893h2.1V124.7a2.287,2.287,0,0,0-.694-1.75,2.847,2.847,0,0,0-2.018-.648,3.167,3.167,0,0,0-2.007.624,1.843,1.843,0,0,0-.793,1.488h-1.167a2.684,2.684,0,0,1,1.167-2.164,4.463,4.463,0,0,1,2.858-.916,4.083,4.083,0,0,1,2.765.875,3.127,3.127,0,0,1,1.038,2.444v4.958a6.194,6.194,0,0,0,.321,2.275V132Zm-3.646-.834a3.92,3.92,0,0,0,2.083-.583,3.336,3.336,0,0,0,1.33-1.5v-2.333h-2.071a5.192,5.192,0,0,0-2.713.63,1.908,1.908,0,0,0-.98,1.692,1.872,1.872,0,0,0,.653,1.464A2.474,2.474,0,0,0,261.991,131.124Z" transform="translate(-107.695 -117.07)"/>
     <path class="logo-text" d="M287.893,130.73a3.751,3.751,0,0,1-3.337,1.517,3.249,3.249,0,0,1-2.549-.968,4.287,4.287,0,0,1-.893-2.882v-6.819h1.167v6.656q0,2.993,2.421,2.993a2.964,2.964,0,0,0,3.185-2.083V121.56h1.167v10.5h-1.12Z" transform="translate(-117.123 -117.167)"/>
     <path class="logo-text" d="M309.294,129.275a1.657,1.657,0,0,0-.688-1.388,5.362,5.362,0,0,0-2.088-.817,9.745,9.745,0,0,1-2.164-.677,2.918,2.918,0,0,1-1.167-.933,2.334,2.334,0,0,1-.373-1.342,2.5,2.5,0,0,1,1.038-2.048,4.194,4.194,0,0,1,2.654-.805,4.305,4.305,0,0,1,2.812.863,2.794,2.794,0,0,1,1.062,2.263h-1.167a1.867,1.867,0,0,0-.77-1.528,2.993,2.993,0,0,0-1.937-.583,3.033,3.033,0,0,0-1.837.508,1.575,1.575,0,0,0-.694,1.324,1.429,1.429,0,0,0,.583,1.213,6.031,6.031,0,0,0,2.1.788,9.679,9.679,0,0,1,2.287.77,2.992,2.992,0,0,1,1.132.974,2.689,2.689,0,0,1-.706,3.5,4.562,4.562,0,0,1-2.794.793,4.666,4.666,0,0,1-2.969-.887,2.724,2.724,0,0,1-1.167-2.24h1.167a2.012,2.012,0,0,0,.852,1.587,3.553,3.553,0,0,0,2.088.583,3.3,3.3,0,0,0,1.96-.537A1.581,1.581,0,0,0,309.294,129.275Z" transform="translate(-126.011 -117.042)"/>
   </g>
 </g>
</g>
</svg>
