<svg width="100%" height="100%" viewBox="0 0 700 147" xmlns="http://www.w3.org/2000/svg">
	<g class="rmlogo-black">
		<path d="M38.462,62.602l0,-33.828l7.249,0c5.638,0 9.698,1.275 12.182,3.826c2.483,2.55 3.725,6.846 3.725,12.887c0,5.101 -1.275,9.229 -3.826,12.383c-2.55,3.155 -6.51,4.732 -11.88,4.732l-7.45,0Zm-37.453,-60.81l0,143.77l37.453,0l0,-57.589l9.866,0c2.282,0 4.195,0.302 5.739,0.907c1.544,0.604 2.819,1.677 3.826,3.221c1.007,1.544 1.711,3.658 2.114,6.343c0.403,2.685 0.604,6.041 0.604,10.068l0,9.665c0,1.477 0.034,3.39 0.101,5.739c0.067,2.349 0.201,4.799 0.403,7.349c0.201,2.551 0.537,5.101 1.006,7.652c0.47,2.55 1.175,4.765 2.115,6.645l39.869,0l0,-2.014c-1.209,-0.671 -2.081,-1.376 -2.618,-2.114c-0.537,-0.738 -1.074,-1.51 -1.611,-2.316c-0.403,-0.805 -0.738,-1.946 -1.007,-3.423c-0.268,-1.476 -0.47,-3.121 -0.604,-4.933c-0.134,-1.812 -0.201,-3.725 -0.201,-5.739c0,-2.013 0,-3.96 0,-5.839l0,-12.283c0,-9.665 -1.678,-17.25 -5.034,-22.753c-3.356,-5.504 -9.531,-8.659 -18.525,-9.464l0,-0.403c8.591,-1.342 14.833,-4.967 18.726,-10.873c3.893,-5.907 5.84,-13.693 5.84,-23.358c0,-5.504 -0.705,-10.605 -2.115,-15.303c-1.409,-4.698 -3.691,-8.759 -6.846,-12.182c-3.154,-3.423 -7.249,-6.074 -12.283,-7.954c-5.034,-1.879 -11.108,-2.819 -18.223,-2.819l-58.595,0Z"/>
		<path d="M116.589,1.792l0,143.77l86.986,0l0,-30.607l-49.534,0l0,-28.592l44.702,0l0,-29.399l-44.702,0l0,-24.565l47.722,0l0,-30.607l-85.174,0Z"/>
		<path d="M217.268,1.792l0,143.77l54.366,0c10.874,0 19.331,-1.98 25.371,-5.94c6.041,-3.96 10.572,-9.263 13.592,-15.908c3.02,-6.644 4.866,-14.296 5.537,-22.954c0.672,-8.659 1.007,-17.686 1.007,-27.083c0,-9.397 -0.335,-18.424 -1.007,-27.083c-0.671,-8.658 -2.517,-16.31 -5.537,-22.954c-3.02,-6.645 -7.551,-11.948 -13.592,-15.908c-6.04,-3.96 -14.497,-5.94 -25.371,-5.94l-54.366,0Zm37.452,116.788l0,-89.806l7.451,0c3.624,0 6.51,0.504 8.658,1.51c2.148,1.007 3.792,3.121 4.933,6.343c1.141,3.222 1.88,7.786 2.215,13.692c0.336,5.907 0.504,13.693 0.504,23.358c0,9.665 -0.168,17.451 -0.504,23.358c-0.335,5.906 -1.074,10.47 -2.215,13.692c-1.141,3.222 -2.785,5.336 -4.933,6.343c-2.148,1.006 -5.034,1.51 -8.658,1.51l-7.451,0Z"/>
	</g>
	<g class="rmlogo-red" style="fill:#f00;">
		<path d="M331.438,1.792l0,143.77l35.036,0l0,-107.123l0.403,0l19.934,107.123l26.982,0l19.935,-107.123l0.402,0l0,107.123l35.037,0l0,-143.77l-53.562,0l-15.102,85.175l-0.402,0l-15.102,-85.175l-53.561,0Z"/>
		<path d="M532.393,31.19l-10.269,61.012l20.941,0l-10.269,-61.012l-0.403,0Zm23.76,-29.398l35.036,143.77l-39.868,0l-3.826,-25.17l-29.801,0l-3.826,25.17l-39.265,0l34.432,-143.77l47.118,0Z"/>
		<path d="M597.432,1.792l0,143.77l35.036,0l0,-88.799l0.403,0l24.968,88.799l41.077,0l0,-143.77l-35.036,0l0,88.598l-0.403,0l-24.163,-88.598l-41.882,0Z"/>
	</g>
</svg>